<?xml version="1.0" encoding="utf-8"?>
<!-- Generator: Adobe Illustrator 16.0.0, SVG Export Plug-In . SVG Version: 6.00 Build 0)  -->
<!DOCTYPE svg PUBLIC "-//W3C//DTD SVG 1.1//EN" "http://www.w3.org/Graphics/SVG/1.1/DTD/svg11.dtd">
<svg version="1.1" id="Layer_1" xmlns="http://www.w3.org/2000/svg" xmlns:xlink="http://www.w3.org/1999/xlink" x="0px" y="0px"
	 width="95px" height="81px" viewBox="0 0 95 81" enable-background="new 0 0 95 81" xml:space="preserve">
<path fill-rule="evenodd" clip-rule="evenodd" fill="#fff" d="M11.2,0C5,0,0,5,0,11.2v41.9c0,6.2,5,11.2,11.2,11.2h25.1v8.4H25.1
	c-1.5,0-2.8,1.3-2.8,2.8V81h50.3v-5.6c0-1.5-1.3-2.8-2.8-2.8H58.7v-8.4h25.1c6.2,0,11.2-5,11.2-11.2V11.2C95,5,90,0,83.8,0H11.2
	L11.2,0z M14,11.2H81c1.6,0,2.8,1.2,2.8,2.8v36.3c0,1.5-1.2,2.8-2.8,2.8H14c-1.5,0-2.8-1.3-2.8-2.8V14C11.2,12.4,12.4,11.2,14,11.2
	L14,11.2z"/>
</svg>
