<?xml version="1.0" encoding="utf-8"?>
<!-- Generator: Adobe Illustrator 16.0.0, SVG Export Plug-In . SVG Version: 6.00 Build 0)  -->
<!DOCTYPE svg PUBLIC "-//W3C//DTD SVG 1.1//EN" "http://www.w3.org/Graphics/SVG/1.1/DTD/svg11.dtd">
<svg version="1.1" id="Layer_1" xmlns="http://www.w3.org/2000/svg" xmlns:xlink="http://www.w3.org/1999/xlink" x="0px" y="0px"
	 width="98px" height="89.4px" viewBox="0 0 98 89.4" enable-background="new 0 0 98 89.4" xml:space="preserve">
<path fill-rule="evenodd" clip-rule="evenodd" fill="#fff" d="M47.6,0c-3.5,0-6.4,2.4-7,5.8h-0.2l-23.1,26h11.5l16-17.9
	c0.9,0.4,1.8,0.6,2.8,0.6c1,0,1.9-0.3,2.8-0.6l15.9,17.9h11.5l-23.1-26h-0.2C54,2.4,51.1,0,47.6,0L47.6,0z M5.8,37.5
	c-3.2,0-5.8,2.6-5.8,5.8v2.9c0,3,2.3,5.4,5.3,5.7l9.1,31.8c2.9,5.8,5.8,5.8,8.6,5.8H75c2.9,0,5.8,0,8.6-5.8l9.1-31.8
	c3-0.2,5.3-2.6,5.3-5.7v-2.9c0-3.2-2.6-5.8-5.8-5.8H5.8L5.8,37.5z M22,51.9h1.4c3.2,0,6.4,2.4,7,5.4l4.1,17.9c0.7,3-1.4,5.5-4.6,5.5
	h-1.5c-3.2,0-6.3-2.5-7-5.5l-4.1-17.9C16.7,54.3,18.8,51.9,22,51.9L22,51.9z M49,51.9c3.2,0,5.8,2.6,5.8,5.8V75
	c0,3.2-2.6,5.8-5.8,5.8c-3.2,0-5.8-2.6-5.8-5.8V57.7C43.3,54.5,45.8,51.9,49,51.9L49,51.9z M74.6,51.9h1.5c3.2,0,5.3,2.4,4.6,5.4
	l-4.1,17.9c-0.7,3-3.8,5.5-7,5.5h-1.5c-3.2,0-5.3-2.5-4.6-5.5l4.1-17.9C68.3,54.3,71.4,51.9,74.6,51.9L74.6,51.9z"/>
</svg>
