<?xml version="1.0" encoding="utf-8"?>
<!-- Generator: Adobe Illustrator 16.0.0, SVG Export Plug-In . SVG Version: 6.00 Build 0)  -->
<!DOCTYPE svg PUBLIC "-//W3C//DTD SVG 1.1//EN" "http://www.w3.org/Graphics/SVG/1.1/DTD/svg11.dtd">
<svg version="1.1" id="Layer_1" xmlns="http://www.w3.org/2000/svg" xmlns:xlink="http://www.w3.org/1999/xlink" x="0px" y="0px"
	 width="77.2px" height="108px" viewBox="0 0 77.2 108" enable-background="new 0 0 77.2 108" xml:space="preserve">
<path fill-rule="evenodd" clip-rule="evenodd" fill="#fff" d="M75.7,25.1l-6.6,10.5L36.3,15.2l6.6-10.5c2.9-4.7,9-6.1,13.7-3.2
	l15.9,9.9C77.2,14.3,78.6,20.4,75.7,25.1z M36.3,88.3L3.5,67.9l30.3-48.5l32.7,20.4L36.3,88.3z M40.7,31.6c-1.5-1-3.5-0.6-4.4,0.9
	L14.8,67c-0.9,1.4-0.4,3.4,1.2,4.3c1.5,1,3.5,0.6,4.4-0.8L41.8,36C42.7,34.5,42.2,32.6,40.7,31.6z M52.5,39
	c-1.5-0.9-3.5-0.6-4.4,0.9L26.6,74.4c-0.9,1.4-0.4,3.4,1.2,4.3c1.5,1,3.5,0.6,4.4-0.8l21.5-34.5C54.6,41.9,54.1,40,52.5,39z
	 M18.8,100.2c-1.6-3.3-4.1-6.3-7.4-8.4c-3.4-2.1-7.1-3-10.8-3L0,73.7l32.7,20.4L18.8,100.2z M9.6,94.7c2.8,1.7,4.8,4.2,6,6.9
	L1.3,108L0.7,92.4C3.7,92.3,6.8,93,9.6,94.7z"/>
</svg>
