<?xml version="1.0" encoding="utf-8"?>
<!-- Generator: Adobe Illustrator 16.0.0, SVG Export Plug-In . SVG Version: 6.00 Build 0)  -->
<!DOCTYPE svg PUBLIC "-//W3C//DTD SVG 1.1//EN" "http://www.w3.org/Graphics/SVG/1.1/DTD/svg11.dtd">
<svg version="1.1" id="Layer_1" xmlns="http://www.w3.org/2000/svg" xmlns:xlink="http://www.w3.org/1999/xlink" x="0px" y="0px"
	 width="23px" height="23px" viewBox="0 0 23 23" enable-background="new 0 0 23 23" xml:space="preserve">
<path fill-rule="evenodd" clip-rule="evenodd" fill="#fff" d="M11.5,0C5.1,0,0,5.1,0,11.5C0,17.9,5.1,23,11.5,23
	C17.9,23,23,17.9,23,11.5C23,5.1,17.9,0,11.5,0z M17.5,10.6l-5.2,5.2c-1,1-2.4,1.3-3.1,0.6c0,0,0,0,0,0c-0.2-0.1-0.3-0.2-0.4-0.3
	l-3.2-3.2c-0.6-0.6-0.6-1.6,0-2.2c0.6-0.6,1.6-0.6,2.2,0l2.3,2.3L15,8.1c1-1,2.4-1.3,3.1-0.6C18.7,8.3,18.5,9.6,17.5,10.6z"/>
</svg>
