<?xml version="1.0" encoding="utf-8"?>
<!-- Generator: Adobe Illustrator 16.0.0, SVG Export Plug-In . SVG Version: 6.00 Build 0)  -->
<!DOCTYPE svg PUBLIC "-//W3C//DTD SVG 1.1//EN" "http://www.w3.org/Graphics/SVG/1.1/DTD/svg11.dtd">
<svg version="1.1" xmlns="http://www.w3.org/2000/svg" xmlns:xlink="http://www.w3.org/1999/xlink" x="0px" y="0px"
	 width="178px" height="44px" viewBox="0 0 178 44" xml:space="preserve">
  <path d="M76.2,17.7c0,2.6-0.9,4.6-2.7,6c-1.8,1.4-4.3,2.1-7.6,2.1h-4.2V37h-1.9V9.9h6.6C72.9,9.9,76.2,12.5,76.2,17.7z M61.7,24.2
  	h3.7c3.1,0,5.3-0.5,6.6-1.5c1.4-1,2-2.6,2-4.9c0-2.1-0.6-3.6-1.9-4.6c-1.3-1-3.3-1.5-6-1.5h-4.5V24.2z"/>
  <path d="M89.9,16.4c0.9,0,1.8,0.1,2.7,0.3l-0.4,1.8c-0.8-0.2-1.7-0.3-2.6-0.3c-1.7,0-3.1,0.7-4.2,2.2c-1.1,1.5-1.7,3.3-1.7,5.5V37
  	H82V16.8h1.6l0.2,3.6h0.1c0.8-1.5,1.7-2.5,2.7-3.1C87.5,16.7,88.6,16.4,89.9,16.4z"/>
  <path d="M105.3,37.4c-2.9,0-5.2-0.9-6.9-2.7c-1.6-1.8-2.5-4.3-2.5-7.6c0-3.2,0.8-5.8,2.4-7.7c1.6-1.9,3.7-2.9,6.4-2.9
  	c2.4,0,4.2,0.8,5.6,2.5c1.4,1.7,2.1,3.9,2.1,6.8v1.5H97.9c0,2.8,0.7,4.9,1.9,6.3c1.3,1.5,3.1,2.2,5.4,2.2c1.2,0,2.2-0.1,3-0.2
  	c0.9-0.2,2-0.5,3.3-1v1.7c-1.1,0.5-2.2,0.8-3.2,1C107.5,37.3,106.5,37.4,105.3,37.4z M104.8,18.1c-1.9,0-3.5,0.6-4.7,1.9
  	s-1.9,3.1-2.1,5.5h12.5c0-2.3-0.5-4.2-1.5-5.5S106.6,18.1,104.8,18.1z"/>
  <path d="M126.4,37.4c-2.9,0-5.1-0.9-6.8-2.7s-2.4-4.4-2.4-7.6c0-3.3,0.8-5.9,2.5-7.8c1.7-1.9,4-2.8,7-2.8c1.7,0,3.4,0.3,5,0.9
  	l-0.5,1.6c-1.7-0.6-3.3-0.9-4.5-0.9c-2.5,0-4.3,0.8-5.6,2.3c-1.3,1.5-1.9,3.7-1.9,6.6c0,2.7,0.6,4.9,1.9,6.4
  	c1.3,1.5,3.1,2.3,5.3,2.3c1.8,0,3.5-0.3,5.1-1v1.7C130.2,37.1,128.5,37.4,126.4,37.4z"/>
  <path d="M150.9,37V23.9c0-2-0.4-3.5-1.3-4.4c-0.9-0.9-2.2-1.4-4-1.4c-2.4,0-4.2,0.6-5.3,1.8c-1.1,1.2-1.7,3.2-1.7,5.9V37h-1.8V8.1
  	h1.8v9.2l-0.1,2.6h0.1c0.8-1.2,1.7-2.1,2.9-2.6c1.2-0.5,2.6-0.8,4.3-0.8c4.6,0,6.9,2.5,6.9,7.4V37H150.9z"/>
  <path d="M161.2,16.8v13.1c0,2,0.4,3.5,1.3,4.4c0.9,0.9,2.2,1.4,4,1.4c2.4,0,4.2-0.6,5.3-1.8c1.1-1.2,1.7-3.2,1.7-5.9V16.8h1.8V37
  	h-1.6l-0.3-2.8h-0.1c-1.3,2.1-3.6,3.2-7,3.2c-4.6,0-6.9-2.5-6.9-7.4V16.8H161.2z"/>
  <circle fill="#5094F2" cx="22" cy="22" r="22"/>
  <path fill="#FFFFFF" d="M20,15.7c-1.6,1.1-2.9,2.2-3.7,3.4c-0.8,1.2-1.2,2.7-1.2,4.6c0.1,0,0.3-0.1,0.6-0.1c0.9,0,1.6,0.3,2.3,0.8
  	c0.7,0.6,1.1,1.4,1.1,2.4c0,1.1-0.3,2-1,2.6c-0.6,0.6-1.5,0.9-2.4,0.9c-1.3,0-2.3-0.5-3-1.5c-0.7-1-1.1-2.4-1.1-4.3
  	c0-2.6,0.6-4.8,1.7-6.7c1.2-1.9,2.9-3.5,5.1-4.8L20,15.7z M31.4,15.7c-1.6,1.1-2.9,2.2-3.7,3.4c-0.8,1.2-1.2,2.7-1.2,4.6
  	c0.1,0,0.3-0.1,0.6-0.1c0.9,0,1.6,0.3,2.3,0.8c0.7,0.6,1.1,1.4,1.1,2.4c0,1.1-0.3,2-1,2.6c-0.6,0.6-1.5,0.9-2.4,0.9
  	c-1.3,0-2.3-0.5-3-1.5c-0.7-1-1.1-2.4-1.1-4.3c0-2.6,0.6-4.8,1.7-6.7c1.2-1.9,2.9-3.5,5.1-4.8L31.4,15.7z"/>
</svg>
